<?xml version="1.0" standalone="no"?>
<!DOCTYPE svg PUBLIC "-//W3C//DTD SVG 1.1//EN" "http://www.w3.org/Graphics/SVG/1.1/DTD/svg11.dtd">
<svg xmlns="http://www.w3.org/2000/svg" version="1.1" width="761.0" height="1000.0">

	<metadata>
		<rdf:RDF xmlns:rdf = "http://www.w3.org/1999/02/22-rdf-syntax-ns#" xmlns:rdfs = "http://www.w3.org/2000/01/rdf-schema#" xmlns:dc = "http://purl.org/dc/elements/1.1/">
			<rdf:Description rdf:about="http://likethought.com/opacity/">
				<dc:title>New Image</dc:title>
				<dc:creator>Sebastian Riedel</dc:creator>
				<dc:rights>Copyright 2010 Sebastian Riedel</dc:rights>
				<dc:description></dc:description>
				<dc:format>image/svg+xml</dc:format>
				<dc:language>de</dc:language>
			</rdf:Description>
		</rdf:RDF>
	</metadata>
	<g>
		<title>Layer 1</title>
		<path d="M 810.5 1058.0 L 810.5 -33.5 L -29.5 -33.5 L -29.5 1058.0 L 810.5 1058.0 Z" fill="rgb(99.99%, 100%, 99.99%)" stroke="none" />
	</g>

	<g>
		<title>Layer 3</title>
		<path d="M 336.767 346.491 C 315.284 409.5 259.613 457.152 261.119 528.138 C 262.325 584.926 310.049 630.663 366.836 629.456 C 412.268 628.491 448.856 590.313 447.893 544.882 C 447.119 508.538 416.579 479.268 380.234 480.039 C 351.158 480.657 327.74 505.09 328.358 534.166" stroke="rgb(0%, 0%, 0%)" stroke-width="5.0" stroke-linecap="round" stroke-linejoin="round" stroke-dasharray="10,10" fill="none" />
		<defs>
			<linearGradient id="Gradient100e7f6c0" gradientUnits="userSpaceOnUse" x1="325.866" y1="536.292" x2="379.652" y2="590.078">
				<stop offset="0%" stop-color="rgb(0%, 0%, 0%)" />
				<stop offset="100%" stop-color="rgb(0%, 0%, 0%)" stop-opacity="0.0" />
			</linearGradient>
		</defs>
		<path d="M 329.885 535.809 C 332.885 559.059 350.885 587.559 384.635 581.559" stroke="url(#Gradient100e7f6c0)" stroke-width="5.0" stroke-linecap="round" stroke-linejoin="round" stroke-dasharray="10,10" fill="none" />
		<text x="377.375" text-anchor="middle" y="840.0">
			<tspan fill="rgb(0%, 0%, 0%)" font-family="AvenirNextLTPro-BoldCn" font-size="130.0">Using Perl 6</tspan>
		</text>
		<text x="686.75" text-anchor="end" y="945.0">
			<tspan fill="rgb(0%, 0%, 0%)" font-family="AvenirNextLTPro-Regular" font-size="24.0">Jonathan S. Duff, Moritz Lenz, Carl Masäk, Patrick R. Michaud &amp; Jonathan Worthington</tspan>
		</text>
	</g>

	<g>
		<title>Layer 2</title>
		<path d="M 541.132 146.131 C 574.283 145.738 613.773 167.234 608.988 205.294 C 606.414 225.762 591.721 239.311 576.253 251.289 C 560.831 263.232 544.015 274.077 523.903 274.322 C 496.106 272.616 469.505 260.588 444.276 249.543 C 463.997 271.725 483.296 297.206 470.282 327.999 C 467.278 335.106 463.2 342.062 457.929 347.713 C 450.34 355.849 440.707 362.423 429.267 362.731 C 417.155 362.786 406.595 355.588 398.437 347.219 C 375.355 323.539 366.948 291.285 366.858 258.957 C 366.815 243.22 368.166 221.902 382.197 211.713 C 381.367 210.365 380.114 208.704 380.365 207.004 C 381.658 198.264 406.217 185.206 413.016 181.555 C 448.188 162.668 501.39 145.804 541.132 146.131 L 541.132 146.131 Z" fill="rgb(0%, 0%, 0%)" stroke="none" />
		<path d="M 218.229 57.394 C 250.9 57.974 277.56 80.095 300.171 101.424 C 321.699 121.732 341.26 144.907 355.919 170.702 C 359.187 176.454 370.028 195.025 367.271 201.998 C 366.654 203.56 364.73 204.47 363.332 205.16 C 370.481 222.906 359.704 243.068 350.475 257.932 C 336.249 280.844 318.013 299.628 293.0 310.301 C 284.116 314.091 274.641 316.802 264.928 316.903 C 224.49 316.24 218.846 258.894 241.094 233.801 C 253.763 219.512 273.127 212.921 290.657 206.882 C 278.277 205.5 265.942 203.725 253.65 201.703 C 232.77 198.269 209.81 194.295 194.464 178.387 C 180.147 163.545 164.216 127.815 164.786 106.685 C 165.579 77.298 189.721 57.385 218.229 57.394 L 218.229 57.394 Z" fill="rgb(0%, 0%, 0%)" stroke="none" />
		<path d="M 385.788 180.069 C 385.788 180.069 400.257 120.276 437.181 109.983" stroke="rgb(0%, 0%, 0%)" stroke-width="1.0" stroke-linecap="square" stroke-linejoin="miter" fill="none" />
		<path d="M 376.83 177.282 C 376.83 177.282 391.584 122.223 367.755 89.439" stroke="rgb(0%, 0%, 0%)" stroke-width="1.0" stroke-linecap="square" stroke-linejoin="miter" fill="none" />
		<defs>
			<linearGradient id="Gradient1153b42e0" gradientUnits="userSpaceOnUse" x1="340.925" y1="277.141" x2="366.691" y2="284.045">
				<stop offset="0%" stop-color="rgb(7.99%, 24.97%, 26.31%)" />
				<stop offset="100%" stop-color="rgb(0%, 0%, 0%)" />
			</linearGradient>
		</defs>
		<path d="M 358.308 280.593 C 358.308 253.85 356.277 231.843 353.808 231.843 C 351.339 231.843 349.308 253.85 349.308 280.593 C 349.308 307.336 351.339 329.343 353.808 329.343 C 356.277 329.343 358.308 307.336 358.308 280.593 Z" fill="url(#Gradient1153b42e0)" stroke="none" transform="translate(353.808, 280.593) rotate(15.0) translate(-353.808, -280.593)" />
		<defs>
			<linearGradient id="Gradient113e5da50" gradientUnits="userSpaceOnUse" x1="363.687" y1="88.665" x2="372.8" y2="91.107">
				<stop offset="0%" stop-color="rgb(17.1%, 31.6%, 27.27%)" />
				<stop offset="100%" stop-color="rgb(0%, 0%, 0%)" />
			</linearGradient>
		</defs>
		<path d="M 372.956 89.886 C 372.956 87.25 370.828 85.08 368.243 85.08 C 365.658 85.08 363.531 87.25 363.531 89.886 C 363.531 92.522 365.658 94.692 368.243 94.692 C 370.828 94.692 372.956 92.522 372.956 89.886 Z" fill="url(#Gradient113e5da50)" stroke="none" transform="translate(368.243, 89.886) rotate(15.0) translate(-368.243, -89.886)" />
		<defs>
			<linearGradient id="Gradient113e78930" gradientUnits="userSpaceOnUse" x1="434.0" y1="107.967" x2="443.114" y2="110.409">
				<stop offset="0%" stop-color="rgb(17.1%, 31.6%, 27.27%)" />
				<stop offset="100%" stop-color="rgb(0%, 0%, 0%)" />
			</linearGradient>
		</defs>
		<path d="M 443.27 109.188 C 443.27 106.552 441.142 104.382 438.557 104.382 C 435.972 104.382 433.845 106.552 433.845 109.188 C 433.845 111.824 435.972 113.994 438.557 113.994 C 441.142 113.994 443.27 111.824 443.27 109.188 Z" fill="url(#Gradient113e78930)" stroke="none" transform="translate(438.557, 109.188) rotate(15.0) translate(-438.557, -109.188)" />
		<defs>
			<linearGradient id="Gradient113e8c5d0" gradientUnits="userSpaceOnUse" x1="160.47" y1="167.55" x2="362.338" y2="221.641">
				<stop offset="0%" stop-color="rgb(88.1%, 20.19%, 13.17%)" />
				<stop offset="100%" stop-color="rgb(96.17%, 71.87%, 0%)" />
			</linearGradient>
		</defs>
		<path d="M 221.777 73.006 C 253.788 74.282 278.822 99.162 300.072 120.601 C 320.187 140.896 339.253 163.26 353.834 187.925 C 357.343 193.859 373.112 219.223 357.302 220.541 C 361.034 229.498 345.392 248.961 340.451 255.907 C 326.848 275.032 313.39 293.219 291.492 302.845 C 284.56 305.892 277.137 308.087 269.52 308.186 C 254.217 308.441 247.444 298.782 242.43 285.816 C 238.737 276.268 237.14 266.978 240.398 256.992 C 244.121 245.584 252.724 236.392 262.46 229.71 C 283.27 215.428 307.378 212.982 331.98 213.417 C 318.663 207.957 305.431 202.254 291.767 197.697 C 283.395 194.905 274.872 192.524 266.197 190.876 C 245.44 186.931 220.862 186.737 203.586 172.894 C 188.783 161.032 174.218 129.61 176.328 110.261 C 178.853 87.113 199.45 72.78 221.777 73.006 L 221.777 73.006 Z" fill="url(#Gradient113e8c5d0)" stroke="none" />
		<path d="M 254.865 118.011 C 254.865 102.037 241.58 88.892 225.435 88.892 C 209.29 88.892 196.005 102.037 196.005 118.011 C 196.005 133.985 209.29 147.129 225.435 147.129 C 241.58 147.129 254.865 133.985 254.865 118.011 Z" fill="rgb(96.17%, 71.87%, 0%)" fill-opacity="0.8" stroke="none" transform="translate(225.435, 118.011) rotate(15.0) translate(-225.435, -118.011)" />
		<path d="M 254.865 118.011 C 254.865 102.037 241.58 88.892 225.435 88.892 C 209.29 88.892 196.005 102.037 196.005 118.011 C 196.005 133.985 209.29 147.129 225.435 147.129 C 241.58 147.129 254.865 133.985 254.865 118.011 Z" stroke="rgb(96.17%, 71.87%, 0%)" stroke-opacity="0.8" stroke-width="1.0" stroke-linecap="square" stroke-linejoin="miter" fill="none" transform="translate(225.435, 118.011) rotate(15.0) translate(-225.435, -118.011)" />
		<path d="M 305.829 148.442 C 305.829 140.182 298.959 133.385 290.61 133.385 C 282.261 133.385 275.391 140.182 275.391 148.442 C 275.391 156.703 282.261 163.5 290.61 163.5 C 298.959 163.5 305.829 156.703 305.829 148.442 Z" fill="rgb(96.17%, 71.87%, 0%)" fill-opacity="0.75" stroke="none" transform="translate(290.61, 148.442) rotate(15.0) translate(-290.61, -148.442)" />
		<path d="M 305.829 148.442 C 305.829 140.182 298.959 133.385 290.61 133.385 C 282.261 133.385 275.391 140.182 275.391 148.442 C 275.391 156.703 282.261 163.5 290.61 163.5 C 298.959 163.5 305.829 156.703 305.829 148.442 Z" stroke="rgb(96.17%, 71.87%, 0%)" stroke-opacity="0.8" stroke-width="1.0" stroke-linecap="square" stroke-linejoin="miter" fill="none" transform="translate(290.61, 148.442) rotate(15.0) translate(-290.61, -148.442)" />
		<path d="M 256.948 167.007 C 256.948 162.324 253.053 158.471 248.321 158.471 C 243.588 158.471 239.694 162.324 239.694 167.007 C 239.694 171.689 243.588 175.542 248.321 175.542 C 253.053 175.542 256.948 171.689 256.948 167.007 Z" fill="rgb(96.17%, 71.87%, 0%)" fill-opacity="0.75" stroke="none" transform="translate(248.321, 167.007) rotate(15.0) translate(-248.321, -167.007)" />
		<path d="M 256.948 167.007 C 256.948 162.324 253.053 158.471 248.321 158.471 C 243.588 158.471 239.694 162.324 239.694 167.007 C 239.694 171.689 243.588 175.542 248.321 175.542 C 253.053 175.542 256.948 171.689 256.948 167.007 Z" stroke="rgb(96.17%, 71.87%, 0%)" stroke-opacity="0.8" stroke-width="1.0" stroke-linecap="square" stroke-linejoin="miter" fill="none" transform="translate(248.321, 167.007) rotate(15.0) translate(-248.321, -167.007)" />
		<defs>
			<linearGradient id="Gradient11536ee10" gradientUnits="userSpaceOnUse" x1="550.47" y1="289.66" x2="384.769" y2="193.992">
				<stop offset="0%" stop-color="rgb(88.1%, 20.19%, 13.17%)" />
				<stop offset="100%" stop-color="rgb(96.17%, 71.87%, 0%)" />
			</linearGradient>
		</defs>
		<path d="M 540.723 159.077 C 567.243 158.764 598.836 175.96 595.008 206.409 C 592.95 222.783 581.196 233.622 568.821 243.204 C 556.482 252.758 543.03 261.433 526.94 261.629 C 520.655 261.612 514.442 260.412 508.397 258.768 C 493.985 254.847 480.489 248.302 466.163 244.131 C 447.032 238.56 427.235 235.803 407.524 233.205 C 413.5 236.716 419.271 240.566 424.93 244.565 C 428.768 247.279 432.871 249.917 436.425 252.996 C 459.515 272.999 476.485 315.907 447.1 338.041 C 440.154 343.273 434.198 348.52 425.02 348.736 C 416.093 348.776 408.217 343.717 402.073 337.631 C 382.303 318.047 378.993 293.909 376.238 267.296 C 375.193 257.209 372.381 237.312 376.341 227.878 C 373.976 227.029 368.428 225.478 369.012 221.935 C 370.17 214.918 390.455 205.114 396.021 202.246 C 422.118 188.798 450.03 178.392 478.22 170.297 C 498.315 164.527 519.673 158.903 540.723 159.077 L 540.723 159.077 Z" fill="url(#Gradient11536ee10)" stroke="none" />
		<path d="M 577.548 201.864 C 577.548 187.866 565.905 176.347 551.757 176.347 C 537.608 176.347 525.966 187.866 525.966 201.864 C 525.966 215.863 537.608 227.382 551.757 227.382 C 565.905 227.382 577.548 215.863 577.548 201.864 Z" fill="rgb(96.17%, 71.87%, 0%)" fill-opacity="0.75" stroke="none" transform="translate(551.757, 201.864) rotate(15.0) translate(-551.757, -201.864)" />
		<path d="M 577.548 201.864 C 577.548 187.866 565.905 176.347 551.757 176.347 C 537.608 176.347 525.966 187.866 525.966 201.864 C 525.966 215.863 537.608 227.382 551.757 227.382 C 565.905 227.382 577.548 215.863 577.548 201.864 Z" stroke="rgb(96.17%, 71.87%, 0%)" stroke-opacity="0.8" stroke-width="1.0" stroke-linecap="square" stroke-linejoin="miter" fill="none" transform="translate(551.757, 201.864) rotate(15.0) translate(-551.757, -201.864)" />
		<path d="M 502.815 194.057 C 502.815 185.797 495.945 179.0 487.596 179.0 C 479.247 179.0 472.377 185.797 472.377 194.057 C 472.377 202.318 479.247 209.115 487.596 209.115 C 495.945 209.115 502.815 202.318 502.815 194.057 Z" fill="rgb(96.17%, 71.87%, 0%)" fill-opacity="0.75" stroke="none" transform="translate(487.596, 194.057) rotate(15.0) translate(-487.596, -194.057)" />
		<path d="M 502.815 194.057 C 502.815 185.797 495.945 179.0 487.596 179.0 C 479.247 179.0 472.377 185.797 472.377 194.057 C 472.377 202.318 479.247 209.115 487.596 209.115 C 495.945 209.115 502.815 202.318 502.815 194.057 Z" stroke="rgb(96.17%, 71.87%, 0%)" stroke-opacity="0.8" stroke-width="1.0" stroke-linecap="square" stroke-linejoin="miter" fill="none" transform="translate(487.596, 194.057) rotate(15.0) translate(-487.596, -194.057)" />
		<path d="M 514.186 233.82 C 514.186 229.137 510.291 225.284 505.559 225.284 C 500.826 225.284 496.932 229.137 496.932 233.82 C 496.932 238.502 500.826 242.355 505.559 242.355 C 510.291 242.355 514.186 238.502 514.186 233.82 Z" fill="rgb(96.17%, 71.87%, 0%)" fill-opacity="0.75" stroke="none" transform="translate(505.559, 233.82) rotate(15.0) translate(-505.559, -233.82)" />
		<path d="M 514.186 233.82 C 514.186 229.137 510.291 225.284 505.559 225.284 C 500.826 225.284 496.932 229.137 496.932 233.82 C 496.932 238.502 500.826 242.355 505.559 242.355 C 510.291 242.355 514.186 238.502 514.186 233.82 Z" stroke="rgb(96.17%, 71.87%, 0%)" stroke-opacity="0.8" stroke-width="1.0" stroke-linecap="square" stroke-linejoin="miter" fill="none" transform="translate(505.559, 233.82) rotate(15.0) translate(-505.559, -233.82)" />
		<defs>
			<linearGradient id="Gradient100e6d090" gradientUnits="userSpaceOnUse" x1="352.612" y1="223.204" x2="384.986" y2="231.878">
				<stop offset="0%" stop-color="rgb(9.42%, 27.02%, 28.74%)" />
				<stop offset="100%" stop-color="rgb(0%, 0%, 0%)" />
			</linearGradient>
		</defs>
		<path d="M 383.049 227.541 C 383.049 207.175 376.616 190.416 368.799 190.416 C 360.982 190.416 354.549 207.175 354.549 227.541 C 354.549 247.907 360.982 264.666 368.799 264.666 C 376.616 264.666 383.049 247.907 383.049 227.541 Z" fill="url(#Gradient100e6d090)" stroke="none" transform="translate(368.799, 227.541) rotate(15.0) translate(-368.799, -227.541)" />
		<defs>
			<linearGradient id="Gradient115441a10" gradientUnits="userSpaceOnUse" x1="368.432" y1="183.518" x2="389.382" y2="189.132">
				<stop offset="0%" stop-color="rgb(8.01%, 24.58%, 25.92%)" />
				<stop offset="100%" stop-color="rgb(0%, 0%, 0%)" />
			</linearGradient>
		</defs>
		<path d="M 389.933 186.325 C 389.933 181.978 384.956 178.4 378.907 178.4 C 372.858 178.4 367.881 181.978 367.881 186.325 C 367.881 190.673 372.858 194.25 378.907 194.25 C 384.956 194.25 389.933 190.673 389.933 186.325 Z" fill="url(#Gradient115441a10)" stroke="none" transform="translate(378.907, 186.325) rotate(15.0) translate(-378.907, -186.325)" />
		<path d="M 426.04 315.425 C 426.04 310.741 421.847 306.887 416.752 306.887 C 411.656 306.887 407.463 310.741 407.463 315.425 C 407.463 320.11 411.656 323.964 416.752 323.964 C 421.847 323.964 426.04 320.11 426.04 315.425 Z" fill="rgb(96.17%, 71.87%, 0%)" fill-opacity="0.75" stroke="none" transform="translate(416.752, 315.425) rotate(15.0) translate(-416.752, -315.425)" />
		<path d="M 426.04 315.425 C 426.04 310.741 421.847 306.887 416.752 306.887 C 411.656 306.887 407.463 310.741 407.463 315.425 C 407.463 320.11 411.656 323.964 416.752 323.964 C 421.847 323.964 426.04 320.11 426.04 315.425 Z" stroke="rgb(96.17%, 71.87%, 0%)" stroke-opacity="0.8" stroke-width="1.0" stroke-linecap="square" stroke-linejoin="miter" fill="none" transform="translate(416.752, 315.425) rotate(15.0) translate(-416.752, -315.425)" />
		<path d="M 448.759 311.163 C 448.759 308.745 446.595 306.755 443.964 306.755 C 441.334 306.755 439.17 308.745 439.17 311.163 C 439.17 313.58 441.334 315.57 443.964 315.57 C 446.595 315.57 448.759 313.58 448.759 311.163 Z" fill="rgb(96.17%, 71.87%, 0%)" fill-opacity="0.75" stroke="none" transform="translate(443.964, 311.163) rotate(15.0) translate(-443.964, -311.163)" />
		<path d="M 448.759 311.163 C 448.759 308.745 446.595 306.755 443.964 306.755 C 441.334 306.755 439.17 308.745 439.17 311.163 C 439.17 313.58 441.334 315.57 443.964 315.57 C 446.595 315.57 448.759 313.58 448.759 311.163 Z" stroke="rgb(96.17%, 71.87%, 0%)" stroke-opacity="0.8" stroke-width="1.0" stroke-linecap="square" stroke-linejoin="miter" fill="none" transform="translate(443.964, 311.163) rotate(15.0) translate(-443.964, -311.163)" />
		<path d="M 443.34 284.868 C 443.34 278.028 437.218 272.4 429.777 272.4 C 422.337 272.4 416.214 278.028 416.214 284.868 C 416.214 291.708 422.337 297.336 429.777 297.336 C 437.218 297.336 443.34 291.708 443.34 284.868 Z" fill="rgb(96.17%, 71.87%, 0%)" fill-opacity="0.75" stroke="none" transform="translate(429.777, 284.868) rotate(15.0) translate(-429.777, -284.868)" />
		<path d="M 443.34 284.868 C 443.34 278.028 437.218 272.4 429.777 272.4 C 422.337 272.4 416.214 278.028 416.214 284.868 C 416.214 291.708 422.337 297.336 429.777 297.336 C 437.218 297.336 443.34 291.708 443.34 284.868 Z" stroke="rgb(96.17%, 71.87%, 0%)" stroke-opacity="0.8" stroke-width="1.0" stroke-linecap="square" stroke-linejoin="miter" fill="none" transform="translate(429.777, 284.868) rotate(15.0) translate(-429.777, -284.868)" />
		<path d="M 299.916 248.154 C 299.916 241.314 293.794 235.686 286.353 235.686 C 278.913 235.686 272.79 241.314 272.79 248.154 C 272.79 254.994 278.913 260.622 286.353 260.622 C 293.794 260.622 299.916 254.994 299.916 248.154 Z" fill="rgb(96.17%, 71.87%, 0%)" fill-opacity="0.75" stroke="none" transform="translate(286.353, 248.154) rotate(15.0) translate(-286.353, -248.154)" />
		<path d="M 299.916 248.154 C 299.916 241.314 293.794 235.686 286.353 235.686 C 278.913 235.686 272.79 241.314 272.79 248.154 C 272.79 254.994 278.913 260.622 286.353 260.622 C 293.794 260.622 299.916 254.994 299.916 248.154 Z" stroke="rgb(96.17%, 71.87%, 0%)" stroke-opacity="0.8" stroke-width="1.0" stroke-linecap="square" stroke-linejoin="miter" fill="none" transform="translate(286.353, 248.154) rotate(15.0) translate(-286.353, -248.154)" />
		<path d="M 290.386 281.903 C 290.386 277.219 286.193 273.365 281.098 273.365 C 276.002 273.365 271.809 277.219 271.809 281.903 C 271.809 286.588 276.002 290.442 281.098 290.442 C 286.193 290.442 290.386 286.588 290.386 281.903 Z" fill="rgb(96.17%, 71.87%, 0%)" fill-opacity="0.75" stroke="none" transform="translate(281.098, 281.903) rotate(15.0) translate(-281.098, -281.903)" />
		<path d="M 290.386 281.903 C 290.386 277.219 286.193 273.365 281.098 273.365 C 276.002 273.365 271.809 277.219 271.809 281.903 C 271.809 286.588 276.002 290.442 281.098 290.442 C 286.193 290.442 290.386 286.588 290.386 281.903 Z" stroke="rgb(96.17%, 71.87%, 0%)" stroke-opacity="0.8" stroke-width="1.0" stroke-linecap="square" stroke-linejoin="miter" fill="none" transform="translate(281.098, 281.903) rotate(15.0) translate(-281.098, -281.903)" />
		<path d="M 265.774 265.581 C 265.774 263.163 263.61 261.173 260.979 261.173 C 258.349 261.173 256.185 263.163 256.185 265.581 C 256.185 267.998 258.349 269.988 260.979 269.988 C 263.61 269.988 265.774 267.998 265.774 265.581 Z" fill="rgb(96.17%, 71.87%, 0%)" fill-opacity="0.75" stroke="none" transform="translate(260.979, 265.581) rotate(15.0) translate(-260.979, -265.581)" />
		<path d="M 265.774 265.581 C 265.774 263.163 263.61 261.173 260.979 261.173 C 258.349 261.173 256.185 263.163 256.185 265.581 C 256.185 267.998 258.349 269.988 260.979 269.988 C 263.61 269.988 265.774 267.998 265.774 265.581 Z" stroke="rgb(96.17%, 71.87%, 0%)" stroke-opacity="0.75" stroke-width="1.0" stroke-linecap="square" stroke-linejoin="miter" fill="none" transform="translate(260.979, 265.581) rotate(15.0) translate(-260.979, -265.581)" />
	</g>

</svg>
